<?xml version="1.0" encoding="utf-8"?>
<!DOCTYPE svg PUBLIC "-//W3C//DTD SVG 1.1//EN" "http://www.w3.org/Graphics/SVG/1.1/DTD/svg11.dtd">
<svg version="1.1" id="Layer_1" xmlns="http://www.w3.org/2000/svg" xmlns:xlink="http://www.w3.org/1999/xlink" x="0px" y="0px"
	 width="100px" height="50px" viewBox="0 0 100 50" enable-background="new 0 0 100 50" xml:space="preserve">
<path fill="#e6e9ed" d="M29.95,0C29.982,0.162,30,0.329,30,0.5C30,1.881,28.881,3,27.5,3S25,1.881,25,0.5
	c0-0.171,0.018-0.338,0.05-0.5H0v50h25.041C25.019,49.869,25,49.736,25,49.6c0-1.381,1.119-2.5,2.5-2.5s2.5,1.119,2.5,2.5
	c0,0.137-0.019,0.27-0.041,0.4H100V0H29.95z M27.5,46.645c-1.381,0-2.5-1.119-2.5-2.5s1.119-2.5,2.5-2.5s2.5,1.119,2.5,2.5
	S28.881,46.645,27.5,46.645z M27.5,41.188c-1.381,0-2.5-1.119-2.5-2.5s1.119-2.5,2.5-2.5s2.5,1.119,2.5,2.5
	S28.881,41.188,27.5,41.188z M27.5,35.733c-1.381,0-2.5-1.119-2.5-2.5s1.119-2.5,2.5-2.5s2.5,1.119,2.5,2.5
	S28.881,35.733,27.5,35.733z M27.5,30.277c-1.381,0-2.5-1.119-2.5-2.5s1.119-2.5,2.5-2.5s2.5,1.119,2.5,2.5
	S28.881,30.277,27.5,30.277z M27.5,24.822c-1.381,0-2.5-1.119-2.5-2.5s1.119-2.5,2.5-2.5s2.5,1.119,2.5,2.5
	S28.881,24.822,27.5,24.822z M27.5,19.367c-1.381,0-2.5-1.119-2.5-2.5s1.119-2.5,2.5-2.5s2.5,1.119,2.5,2.5
	S28.881,19.367,27.5,19.367z M27.5,13.911c-1.381,0-2.5-1.119-2.5-2.5s1.119-2.5,2.5-2.5s2.5,1.119,2.5,2.5
	S28.881,13.911,27.5,13.911z M27.5,8.456c-1.381,0-2.5-1.119-2.5-2.5s1.119-2.5,2.5-2.5s2.5,1.119,2.5,2.5S28.881,8.456,27.5,8.456z
	"/>
</svg>
